<svg width="1365" height="4300" viewBox="0 0 1365 4300" fill="none" xmlns="http://www.w3.org/2000/svg">
<g clip-path="url(#clip0_106_252)">
<rect width="1365" height="4300" fill="url(#paint0_linear_106_252)"/>
<g clip-path="url(#clip1_106_252)">
<path d="M-83.7345 1728.6L-79.5943 1726.88L-75.454 1725.15L-71.3136 1723.43L-67.1731 1721.7L-63.0325 1719.98L-58.8917 1718.26L-54.7506 1716.54L-50.6093 1714.82L-46.4677 1713.1L-42.3258 1711.39L-38.1835 1709.68L-34.0408 1707.97L-29.8977 1706.27L-25.754 1704.57L-21.6099 1702.87L-17.4652 1701.18L-13.3199 1699.49L-9.17402 1697.81L-5.02746 1696.13L-0.880202 1694.46L3.26779 1692.79L7.41654 1691.13L11.5661 1689.48L15.7165 1687.83L19.8677 1686.19L24.0199 1684.56L28.173 1682.93L32.3271 1681.32L36.4822 1679.71L40.6383 1678.1L44.7955 1676.51L48.9538 1674.93L53.1132 1673.35L57.2738 1671.78L61.4356 1670.22L65.5987 1668.68L69.763 1667.14L73.9286 1665.61L78.0955 1664.09L82.2638 1662.59L86.4335 1661.09L90.6046 1659.61L94.7772 1658.13L98.9512 1656.67L103.127 1655.22L107.304 1653.78L111.482 1652.36L115.663 1650.94L119.844 1649.54L124.028 1648.16L128.213 1646.78L132.4 1645.42L136.589 1644.07L140.779 1642.74L144.971 1641.42L149.165 1640.11L153.361 1638.82L157.558 1637.54L161.758 1636.28L165.959 1635.03L170.162 1633.8L174.367 1632.58L178.574 1631.38L182.783 1630.19L186.995 1629.02L191.208 1627.87L195.423 1626.73L199.64 1625.6L203.859 1624.49L208.081 1623.4L212.304 1622.33L216.53 1621.27L220.757 1620.23L224.987 1619.21L229.219 1618.2L233.453 1617.21L237.69 1616.24L241.928 1615.28L246.169 1614.34L250.412 1613.42L254.658 1612.52L258.905 1611.63L263.155 1610.77L267.407 1609.92L271.662 1609.08L275.918 1608.27L280.177 1607.47L284.439 1606.7L288.702 1605.94L292.968 1605.2L297.237 1604.47L301.507 1603.77L305.78 1603.08L310.056 1602.42L314.334 1601.77L318.614 1601.14L322.896 1600.52L327.181 1599.93L331.468 1599.35L335.758 1598.8L340.049 1598.26L344.344 1597.74L348.64 1597.24L352.939 1596.76L357.241 1596.29L361.544 1595.85L365.85 1595.42L370.159 1595.01L374.469 1594.62L378.782 1594.25L383.098 1593.89L387.415 1593.56L391.736 1593.24L396.058 1592.94L400.383 1592.66L404.709 1592.4L409.039 1592.15L413.37 1591.92L417.704 1591.71L422.04 1591.52L426.378 1591.35L430.719 1591.19L435.062 1591.05L439.407 1590.93L443.754 1590.82L448.103 1590.74L452.455 1590.66L456.808 1590.61L461.164 1590.57L465.522 1590.55L469.882 1590.55L474.244 1590.56L478.609 1590.59L482.975 1590.63L487.343 1590.7L491.713 1590.77L496.086 1590.86L500.46 1590.97L504.836 1591.09L509.214 1591.23L513.594 1591.38L517.976 1591.55L522.36 1591.73L526.746 1591.93L531.133 1592.14L535.523 1592.37L539.914 1592.61L544.307 1592.86L548.701 1593.13L553.097 1593.41L557.495 1593.7L561.895 1594L566.296 1594.32L570.699 1594.65L575.103 1595L579.509 1595.35L583.916 1595.72L588.325 1596.1L592.735 1596.49L597.147 1596.89L601.56 1597.3L605.975 1597.72L610.39 1598.15L614.807 1598.6L619.226 1599.05L623.645 1599.51L628.066 1599.98L632.488 1600.46L636.911 1600.95L641.335 1601.45L645.761 1601.96L650.187 1602.48L654.614 1603L659.043 1603.53L663.472 1604.07L667.902 1604.61L672.333 1605.16L676.765 1605.72L681.197 1606.29L685.631 1606.86L690.065 1607.44L694.5 1608.02L698.935 1608.6L703.371 1609.2L707.808 1609.79L712.245 1610.39L716.683 1611L721.121 1611.61L725.56 1612.22L729.999 1612.84L734.438 1613.45L738.878 1614.08L743.318 1614.7L747.759 1615.32L752.199 1615.95L756.64 1616.58L761.081 1617.21L765.522 1617.84L769.963 1618.47L774.404 1619.1L778.845 1619.73L783.286 1620.36L787.727 1621L792.168 1621.63L796.609 1622.25L801.05 1622.88L805.49 1623.51L809.93 1624.13L814.37 1624.75L818.809 1625.37L823.248 1625.98L827.687 1626.6L832.125 1627.2L836.563 1627.81L841 1628.41L845.437 1629.01L849.873 1629.6L854.309 1630.19L858.743 1630.77L863.178 1631.35L867.611 1631.92L872.044 1632.48L876.475 1633.04L880.906 1633.59L885.337 1634.14L889.766 1634.68L894.194 1635.21L898.621 1635.73L903.048 1636.24L907.473 1636.75L911.897 1637.25L916.32 1637.74L920.742 1638.22L925.163 1638.69L929.583 1639.16L934.001 1639.61L938.418 1640.05L942.834 1640.48L947.248 1640.91L951.661 1641.32L956.073 1641.72L960.483 1642.11L964.892 1642.49L969.299 1642.85L973.705 1643.21L978.11 1643.55L982.512 1643.88L986.914 1644.2L991.313 1644.51L995.711 1644.8L1000.11 1645.08L1004.5 1645.34L1008.89 1645.6L1013.29 1645.84L1017.67 1646.06L1022.06 1646.27L1026.45 1646.47L1030.83 1646.65L1035.21 1646.82L1039.59 1646.97L1043.97 1647.11L1048.35 1647.23L1052.72 1647.34L1057.09 1647.43L1061.47 1647.51L1065.83 1647.57L1070.2 1647.61L1074.56 1647.64L1078.93 1647.66L1083.29 1647.65L1087.64 1647.63L1092 1647.59L1096.35 1647.54L1100.71 1647.47L1105.05 1647.38L1109.4 1647.28L1113.75 1647.15L1118.09 1647.01L1122.43 1646.86L1126.77 1646.68L1131.1 1646.49L1135.44 1646.28L1139.77 1646.05L1144.1 1645.81L1148.43 1645.55L1152.75 1645.26L1157.07 1644.96L1161.39 1644.65L1165.71 1644.31L1170.03 1643.96L1174.34 1643.59L1178.65 1643.19L1182.96 1642.79L1187.26 1642.36L1191.57 1641.91L1195.87 1641.45L1200.17 1640.97L1204.46 1640.46L1208.76 1639.94L1213.05 1639.41L1217.34 1638.85L1221.63 1638.27L1225.91 1637.68L1230.19 1637.07L1234.47 1636.44L1238.75 1635.79L1243.03 1635.12L1247.3 1634.43L1251.57 1633.73L1255.84 1633.01L1260.11 1632.27L1264.37 1631.51L1268.63 1630.73L1272.89 1629.93L1277.15 1629.12L1281.4 1628.29L1285.65 1627.44L1289.9 1626.57L1294.15 1625.69L1298.4 1624.78L1302.64 1623.86L1306.88 1622.92L1311.12 1621.97L1315.35 1621L1319.59 1620.01L1323.82 1619L1328.05 1617.97L1332.28 1616.93L1336.5 1615.88L1340.73 1614.8L1344.95 1613.71L1349.17 1612.6L1353.39 1611.48L1357.6 1610.34L1361.81 1609.18L1366.02 1608.01L1370.23 1606.83L1374.44 1605.62L1378.65 1604.41L1382.85 1603.17L1387.05 1601.92L1391.25 1600.66L1395.45 1599.38L1399.64 1598.09L1403.84 1596.79L1408.03 1595.47L1412.22 1594.13L1416.41 1592.78L1420.6 1591.42L1424.78 1590.05L1428.96 1588.66L1433.15 1587.26L1437.33 1585.85L1441.5 1584.42L1445.68 1582.98L1449.86 1581.53L1454.03 1580.07L1458.2 1578.6L1462.37 1577.11L1466.54 1575.62L1470.71 1574.11L1474.88 1572.59L1479.05 1571.07L1483.21 1569.53L1487.37 1567.98L1491.53 1566.42L1495.7 1564.86L1499.85 1563.28L1504.01 1561.69L1508.17 1560.1L1512.33 1558.5L1516.48 1556.89L1520.64 1555.27L1524.79 1553.64L1528.94 1552.01L1533.09 1550.37L1537.24 1548.72L1541.39 1547.07L1545.54 1545.41L1549.69 1543.74L1553.84 1542.07L1557.98 1540.4L1562.13 1538.71L1566.27 1537.03L1570.42 1535.33L1574.56 1533.64L1578.71 1531.94L1582.85 1530.23L1586.99 1528.53L1591.13 1526.82L1595.28 1525.1L1599.42 1523.39L1603.56 1521.67L1607.7 1519.95L1611.84 1518.23L1615.98 1516.5L1620.12 1514.78L1624.26 1513.05L1628.4 1511.33" stroke="url(#paint1_linear_106_252)" stroke-opacity="0.6" stroke-width="5" stroke-miterlimit="10" stroke-linecap="round" stroke-linejoin="round"/>
</g>
<g clip-path="url(#clip2_106_252)">
<path d="M-17.0548 325.71L-16.8148 324.09L-16.5746 322.469L-16.3341 320.849L-16.093 319.229L-15.8513 317.61L-15.6087 315.992L-15.3651 314.375L-15.1202 312.76L-14.874 311.146L-14.6263 309.534L-14.3768 307.924L-14.1254 306.317L-13.872 304.711L-13.6163 303.109L-13.3583 301.509L-13.0977 299.912L-12.8343 298.318L-12.5681 296.727L-12.2988 295.14L-12.0263 293.557L-11.7503 291.978L-11.4708 290.403L-11.1876 288.832L-10.9005 287.266L-10.6094 285.704L-10.3141 284.148L-10.0144 282.596L-9.71013 281.05L-9.40123 279.509L-9.0875 277.973L-8.76878 276.444L-8.44492 274.92L-8.11577 273.403L-7.78117 271.891L-7.44099 270.387L-7.09506 268.889L-6.74326 267.398L-6.38541 265.913L-6.0214 264.436L-5.65106 262.967L-5.27427 261.504L-4.89089 260.05L-4.50077 258.603L-4.10379 257.164L-3.69981 255.734L-3.28869 254.311L-2.8703 252.898L-2.44452 251.492L-2.01123 250.096L-1.57029 248.708L-1.12158 247.329L-0.664979 245.96L-0.200376 244.599L0.272354 243.248L0.753323 241.907L1.24264 240.575L1.74043 239.254L2.24678 237.942L2.76182 236.64L3.28565 235.348L3.81835 234.067L4.36005 232.796L4.91083 231.536L5.47079 230.286L6.04002 229.048L6.61863 227.82L7.20668 226.603L7.80428 225.397L8.41151 224.202L9.02844 223.018L9.65516 221.846L10.2917 220.685L10.9383 219.536L11.5948 218.399L12.2614 217.273L12.9382 216.159L13.6252 215.056L14.3224 213.966L15.03 212.888L15.748 211.822L16.4764 210.767L17.2153 209.725L17.9648 208.696L18.7249 207.678L19.4956 206.673L20.277 205.68L21.0691 204.7L21.872 203.732L22.6856 202.777L23.5101 201.835L24.3454 200.904L25.1916 199.987L26.0487 199.082L26.9167 198.19L27.7957 197.311L28.6856 196.444L29.5865 195.59L30.4983 194.748L31.4211 193.92L32.3549 193.104L33.2997 192.301L34.2555 191.511L35.2223 190.733L36.2 189.968L37.1887 189.216L38.1883 188.477L39.1989 187.75L40.2204 187.036L41.2527 186.334L42.296 185.646L43.3501 184.969L44.4151 184.306L45.4908 183.654L46.5773 183.016L47.6745 182.39L48.7823 181.776L49.9009 181.174L51.03 180.585L52.1697 180.008L53.3198 179.443L54.4804 178.891L55.6514 178.35L56.8328 177.822L58.0244 177.305L59.2262 176.8L60.4382 176.307L61.6602 175.826L62.8923 175.356L64.1343 174.898L65.3862 174.451L66.6479 174.016L67.9192 173.592L69.2002 173.179L70.4907 172.777L71.7907 172.386L73.1001 172.006L74.4187 171.637L75.7465 171.278L77.0834 170.93L78.4293 170.592L79.7841 170.265L81.1476 169.948L82.5199 169.641L83.9007 169.344L85.29 169.056L86.6876 168.779L88.0934 168.511L89.5074 168.252L90.9294 168.003L92.3593 167.763L93.797 167.531L95.2422 167.309L96.6951 167.096L98.1553 166.891L99.6227 166.694L101.097 166.506L102.579 166.326L104.067 166.153L105.563 165.989L107.064 165.832L108.573 165.683L110.087 165.541L111.608 165.407L113.135 165.279L114.667 165.158L116.206 165.044L117.75 164.936L119.299 164.835L120.854 164.739L122.414 164.65L123.979 164.566L125.548 164.488L127.123 164.416L128.702 164.349L130.285 164.286L131.872 164.229L133.464 164.176L135.059 164.128L136.658 164.085L138.261 164.045L139.867 164.009L141.476 163.977L143.089 163.949L144.704 163.924L146.322 163.902L147.943 163.883L149.565 163.867L151.191 163.853L152.818 163.842L154.447 163.833L156.078 163.826L157.71 163.821L159.344 163.817L160.979 163.815L162.615 163.814L164.252 163.814L165.889 163.815L167.527 163.816L169.166 163.818L170.804 163.82L172.443 163.822L174.081 163.824L175.719 163.825L177.357 163.826L178.994 163.826L180.63 163.825L182.265 163.823L183.899 163.819L185.531 163.814L187.162 163.807L188.791 163.798L190.418 163.787L192.043 163.773L193.666 163.757L195.287 163.738L196.905 163.716L198.52 163.691L200.132 163.663L201.742 163.631L203.348 163.595L204.95 163.556L206.549 163.512L208.145 163.464L209.736 163.411L211.324 163.354L212.907 163.291L214.486 163.224L216.06 163.152L217.63 163.074L219.195 162.99L220.755 162.901L222.309 162.806L223.859 162.704L225.403 162.596L226.941 162.482L228.474 162.361L230.001 162.234L231.522 162.099L233.036 161.957L234.544 161.808L236.046 161.651L237.541 161.487L239.03 161.314L240.511 161.134L241.986 160.946L243.454 160.749L244.914 160.544L246.367 160.331L247.812 160.109L249.249 159.877L250.679 159.637L252.101 159.388L253.515 159.129L254.921 158.861L256.319 158.584L257.708 158.296L259.089 157.999L260.461 157.692L261.825 157.375L263.179 157.048L264.525 156.71L265.862 156.362L267.19 156.003L268.509 155.634L269.818 155.254L271.118 154.863L272.409 154.461L273.69 154.048L274.961 153.624L276.223 153.189L277.474 152.742L278.716 152.284L279.949 151.814L281.171 151.333L282.383 150.84L283.584 150.335L284.776 149.818L285.957 149.29L287.128 148.749L288.289 148.197L289.439 147.632L290.579 147.055L291.708 146.466L292.826 145.864L293.934 145.25L295.032 144.624L296.118 143.986L297.194 143.334L298.259 142.671L299.313 141.995L300.356 141.306L301.388 140.604L302.41 139.89L303.42 139.164L304.42 138.424L305.409 137.672L306.387 136.907L307.353 136.13L308.309 135.339L309.254 134.536L310.188 133.72L311.11 132.892L312.022 132.05L312.923 131.196L313.813 130.33L314.692 129.45L315.56 128.558L316.417 127.653L317.263 126.736L318.099 125.806L318.923 124.863L319.737 123.908L320.54 122.94L321.332 121.96L322.113 120.967L322.884 119.962L323.644 118.944L324.393 117.915L325.132 116.873L325.861 115.819L326.579 114.752L327.286 113.674L327.984 112.584L328.671 111.481L329.347 110.367L330.014 109.241L330.671 108.104L331.317 106.955L331.954 105.794L332.58 104.622L333.197 103.438L333.805 102.243L334.402 101.038L334.99 99.8205L335.569 98.5925L336.138 97.3536L336.698 96.104L337.249 94.8437L337.79 93.5728L338.323 92.2916L338.847 91L339.362 89.6982L339.868 88.3864L340.366 87.0646L340.855 85.733L341.336 84.3917L341.809 83.0408L342.274 81.6806L342.73 80.311L343.179 78.9322L343.62 77.5445L344.053 76.1479L344.479 74.7425L344.897 73.3286L345.309 71.9063L345.713 70.4756L346.11 69.0369L346.5 67.5902L346.883 66.1356L347.26 64.6734L347.63 63.2037L347.994 61.7267L348.352 60.2426L348.704 58.7514L349.05 57.2534L349.39 55.7487L349.725 54.2376L350.054 52.7201L350.378 51.1965L350.696 49.6669L351.01 48.1315L351.319 46.5906L351.623 45.0442L351.923 43.4925L352.218 41.9358L352.509 40.3742L352.796 38.808L353.08 37.2372L353.359 35.6621L353.635 34.0829L353.908 32.4997L354.177 30.9128L354.443 29.3223L354.706 27.7285L354.967 26.1315L355.225 24.5315L355.481 22.9287L355.734 21.3234L355.986 19.7157L356.235 18.1057L356.483 16.4938L356.729 14.8801L356.974 13.2648L357.217 11.6481L357.46 10.0302L357.702 8.41125L357.943 6.79155L358.183 5.17123L358.424 3.55052" stroke="url(#paint2_linear_106_252)" stroke-opacity="0.6" stroke-width="5" stroke-miterlimit="10" stroke-linecap="round" stroke-linejoin="round"/>
</g>
<g clip-path="url(#clip3_106_252)">
<path d="M1362.43 465.674L1359.24 466.432L1356.04 467.19L1352.85 467.946L1349.66 468.701L1346.47 469.454L1343.28 470.205L1340.1 470.953L1336.91 471.697L1333.73 472.438L1330.55 473.174L1327.38 473.905L1324.21 474.631L1321.04 475.351L1317.87 476.065L1314.71 476.772L1311.55 477.471L1308.4 478.163L1305.26 478.847L1302.12 479.522L1298.98 480.188L1295.85 480.844L1292.73 481.49L1289.61 482.126L1286.51 482.751L1283.4 483.364L1280.31 483.965L1277.22 484.554L1274.14 485.13L1271.07 485.693L1268.01 486.243L1264.96 486.778L1261.91 487.298L1258.88 487.804L1255.85 488.294L1252.84 488.768L1249.83 489.227L1246.84 489.668L1243.86 490.092L1240.88 490.499L1237.92 490.888L1234.97 491.259L1232.03 491.611L1229.11 491.944L1226.19 492.257L1223.29 492.551L1220.4 492.824L1217.52 493.077L1214.66 493.309L1211.81 493.52L1208.97 493.709L1206.15 493.876L1203.34 494.02L1200.55 494.142L1197.77 494.241L1195 494.317L1192.25 494.369L1189.52 494.397L1186.79 494.401L1184.09 494.38L1181.4 494.334L1178.73 494.263L1176.07 494.167L1173.43 494.045L1170.8 493.897L1168.19 493.723L1165.6 493.522L1163.02 493.294L1160.46 493.04L1157.92 492.758L1155.4 492.448L1152.89 492.111L1150.4 491.746L1147.93 491.353L1145.47 490.931L1143.04 490.481L1140.62 490.003L1138.22 489.495L1135.84 488.958L1133.47 488.392L1131.13 487.796L1128.8 487.171L1126.49 486.516L1124.2 485.832L1121.93 485.117L1119.68 484.372L1117.44 483.597L1115.23 482.791L1113.03 481.955L1110.86 481.089L1108.7 480.192L1106.56 479.264L1104.44 478.305L1102.35 477.316L1100.27 476.295L1098.21 475.244L1096.16 474.161L1094.14 473.048L1092.14 471.903L1090.16 470.728L1088.2 469.521L1086.25 468.283L1084.33 467.014L1082.42 465.714L1080.54 464.383L1078.67 463.021L1076.82 461.628L1075 460.204L1073.19 458.749L1071.4 457.263L1069.63 455.746L1067.88 454.198L1066.15 452.62L1064.44 451.012L1062.75 449.373L1061.07 447.703L1059.42 446.003L1057.78 444.274L1056.16 442.514L1054.57 440.724L1052.99 438.905L1051.43 437.056L1049.88 435.177L1048.36 433.269L1046.85 431.333L1045.36 429.367L1043.89 427.372L1042.44 425.349L1041.01 423.298L1039.59 421.218L1038.19 419.111L1036.81 416.976L1035.44 414.813L1034.09 412.623L1032.76 410.406L1031.45 408.162L1030.15 405.892L1028.87 403.595L1027.6 401.273L1026.36 398.925L1025.12 396.551L1023.91 394.152L1022.7 391.728L1021.52 389.28L1020.35 386.807L1019.19 384.311L1018.05 381.791L1016.92 379.247L1015.81 376.68L1014.71 374.091L1013.63 371.48L1012.56 368.846L1011.5 366.191L1010.46 363.514L1009.43 360.817L1008.41 358.099L1007.4 355.36L1006.41 352.602L1005.43 349.825L1004.46 347.028L1003.51 344.213L1002.56 341.379L1001.63 338.528L1000.7 335.659L999.79 332.773L998.888 329.87L997.996 326.951L997.114 324.017L996.242 321.067L995.379 318.101L994.525 315.122L993.68 312.128L992.843 309.12L992.015 306.1L991.195 303.066L990.383 300.02L989.578 296.962L988.78 293.893L987.989 290.813L987.205 287.722L986.427 284.621L985.655 281.511L984.888 278.391L984.128 275.263L983.372 272.126L982.621 268.982L981.875 265.83L981.132 262.672L980.394 259.507L979.66 256.337L978.929 253.161L978.201 249.98L977.475 246.795L976.752 243.606L976.031 240.414L975.313 237.219L974.595 234.021L973.879 230.821L973.164 227.62L972.449 224.418L971.735 221.215L971.02 218.013L970.305 214.811L969.59 211.61L968.874 208.41L968.157 205.212L967.438 202.017L966.717 198.824L965.994 195.635L965.268 192.45L964.54 189.27L963.809 186.094L963.075 182.924L962.337 179.759L961.594 176.601L960.848 173.449L960.097 170.305L959.342 167.168L958.581 164.04L957.814 160.92L957.042 157.81L956.264 154.709L955.48 151.618L954.689 148.538L953.891 145.469L953.086 142.411L952.274 139.365L951.454 136.331L950.626 133.31L949.789 130.303L948.944 127.309L948.09 124.329L947.227 121.364L946.355 118.414L945.473 115.479L944.581 112.56L943.679 109.658L942.767 106.772L941.843 103.903L940.909 101.051L939.964 98.2178L939.007 95.4026L938.039 92.606L937.058 89.8285L936.066 87.0704L935.061 84.3322L934.043 81.6141L933.013 78.9167L931.969 76.2401L930.913 73.5849L929.842 70.9513L928.758 68.3397L927.66 65.7504L926.547 63.1839L925.421 60.6403L924.279 58.1201L923.123 55.6235L921.952 53.1509L920.766 50.7025L919.564 48.2788L918.347 45.8799L917.114 43.5062L915.865 41.1579L914.6 38.8354L913.318 36.5388L912.021 34.2686L910.706 32.0248L909.375 29.8079L908.027 27.6179L906.662 25.4552L905.28 23.32L903.88 21.2125L902.463 19.133L901.028 17.0816L899.576 15.0585L898.106 13.064L896.617 11.0983L895.111 9.16144L893.587 7.25372L892.044 5.37525L890.482 3.52621L888.902 1.70676L887.304 -0.0829589L885.687 -1.84281L884.051 -3.57266L882.396 -5.27237L880.723 -6.94184L879.03 -8.58094L877.318 -10.1896L875.587 -11.7677L873.837 -13.3151L872.068 -14.8318L870.28 -16.3178L868.472 -17.7728L866.645 -19.197L864.798 -20.5902L862.932 -21.9523L861.047 -23.2834L859.142 -24.5835L857.218 -25.8524L855.274 -27.0903L853.311 -28.297L851.328 -29.4726L849.326 -30.6172L847.304 -31.7307L845.263 -32.8131L843.203 -33.8645L841.123 -34.8849L839.024 -35.8745L836.906 -36.8331L834.768 -37.761L832.611 -38.6581L830.435 -39.5246L828.24 -40.3606L826.025 -41.166L823.792 -41.9412L821.54 -42.686L819.269 -43.4008L816.979 -44.0855L814.671 -44.7404L812.343 -45.3655L809.998 -45.9611L807.634 -46.5272L805.251 -47.064L802.851 -47.5718L800.432 -48.0506L797.996 -48.5007L795.541 -48.9222L793.069 -49.3154L790.579 -49.6804L788.072 -50.0175L785.547 -50.3269L783.005 -50.6088L780.446 -50.8635L777.87 -51.0911L775.278 -51.2919L772.669 -51.4662L770.043 -51.6143L767.401 -51.7363L764.743 -51.8327L762.069 -51.9035L759.379 -51.9492L756.674 -51.9701L753.954 -51.9663L751.218 -51.9383L748.467 -51.8863L745.701 -51.8106L742.921 -51.7117L740.127 -51.5897L737.318 -51.445L734.495 -51.278L731.659 -51.089L728.808 -50.8783L725.945 -50.6464L723.069 -50.3935L720.179 -50.1201L717.277 -49.8264L714.363 -49.5129L711.436 -49.18L708.498 -48.828L705.547 -48.4573L702.586 -48.0683L699.613 -47.6615L696.629 -47.2371L693.635 -46.7957L690.63 -46.3376L687.615 -45.8633L684.59 -45.3732L681.555 -44.8676L678.511 -44.347L675.458 -43.8119L672.396 -43.2626L669.326 -42.6997L666.247 -42.1235L663.16 -41.5345L660.066 -40.9332L656.964 -40.3199L653.855 -39.6953L650.739 -39.0596L647.616 -38.4134L644.487 -37.7571L641.352 -37.0911L638.211 -36.4161L635.065 -35.7324L631.914 -35.0404L628.758 -34.3407L625.598 -33.6338L622.433 -32.9201L619.264 -32.2L616.091 -31.4741L612.916 -30.7429L609.737 -30.0069L606.555 -29.2664L603.371 -28.522L600.185 -27.7743L596.997 -27.0235L593.808 -26.2704L590.617 -25.5153L587.425 -24.7587L584.233 -24.0012" stroke="url(#paint3_linear_106_252)" stroke-opacity="0.6" stroke-width="5" stroke-miterlimit="10" stroke-linecap="round" stroke-linejoin="round"/>
</g>
<path d="M1366.32 770.011L1362.72 771.989L1359.12 773.967L1355.52 775.944L1351.92 777.919L1348.32 779.892L1344.72 781.862L1341.12 783.829L1337.53 785.792L1333.93 787.751L1330.33 789.705L1326.73 791.653L1323.13 793.596L1319.54 795.532L1315.94 797.461L1312.34 799.383L1308.75 801.297L1305.15 803.202L1301.56 805.098L1297.96 806.984L1294.37 808.86L1290.78 810.726L1287.19 812.58L1283.6 814.423L1280.01 816.254L1276.42 818.072L1272.83 819.877L1269.24 821.668L1265.65 823.445L1262.06 825.207L1258.48 826.954L1254.9 828.685L1251.31 830.401L1247.73 832.099L1244.15 833.781L1240.57 835.445L1236.99 837.091L1233.41 838.719L1229.83 840.328L1226.26 841.917L1222.68 843.487L1219.11 845.036L1215.54 846.565L1211.97 848.073L1208.4 849.559L1204.83 851.023L1201.27 852.464L1197.7 853.883L1194.14 855.279L1190.57 856.651L1187.01 858L1183.45 859.323L1179.9 860.623L1176.34 861.897L1172.79 863.145L1169.23 864.368L1165.68 865.564L1162.13 866.734L1158.58 867.878L1155.04 868.993L1151.49 870.082L1147.95 871.142L1144.41 872.175L1140.87 873.178L1137.33 874.153L1133.8 875.099L1130.26 876.016L1126.73 876.903L1123.2 877.76L1119.67 878.587L1116.15 879.383L1112.62 880.149L1109.1 880.884L1105.58 881.587L1102.06 882.259L1098.54 882.9L1095.03 883.509L1091.51 884.086L1088 884.63L1084.49 885.142L1080.99 885.622L1077.48 886.069L1073.98 886.483L1070.48 886.863L1066.98 887.211L1063.48 887.525L1059.99 887.806L1056.5 888.053L1053.01 888.266L1049.52 888.446L1046.03 888.592L1042.55 888.703L1039.07 888.781L1035.59 888.824L1032.11 888.833L1028.63 888.808L1025.16 888.749L1021.69 888.655L1018.22 888.526L1014.75 888.364L1011.29 888.166L1007.82 887.935L1004.36 887.669L1000.9 887.368L997.447 887.033L993.992 886.664L990.54 886.261L987.09 885.823L983.642 885.351L980.196 884.844L976.752 884.304L973.31 883.73L969.871 883.121L966.433 882.479L962.998 881.803L959.565 881.094L956.133 880.351L952.704 879.574L949.277 878.765L945.852 877.922L942.429 877.047L939.008 876.138L935.589 875.197L932.172 874.224L928.757 873.218L925.344 872.181L921.933 871.111L918.524 870.011L915.117 868.878L911.712 867.715L908.308 866.52L904.907 865.295L901.507 864.039L898.11 862.754L894.714 861.438L891.32 860.092L887.928 858.718L884.537 857.314L881.149 855.881L877.762 854.42L874.377 852.931L870.994 851.414L867.612 849.869L864.232 848.297L860.854 846.699L857.477 845.073L854.102 843.422L850.729 841.745L847.357 840.042L843.987 838.314L840.618 836.561L837.251 834.784L833.885 832.983L830.521 831.159L827.158 829.311L823.796 827.44L820.436 825.548L817.078 823.633L813.72 821.696L810.364 819.739L807.009 817.761L803.656 815.762L800.303 813.744L796.952 811.707L793.602 809.65L790.254 807.575L786.906 805.482L783.559 803.372L780.214 801.244L776.869 799.1L773.526 796.94L770.183 794.764L766.841 792.573L763.501 790.367L760.161 788.148L756.822 785.914L753.484 783.667L750.146 781.408L746.81 779.136L743.474 776.853L740.139 774.559L736.804 772.254L733.47 769.939L730.137 767.614L726.804 765.28L723.472 762.938L720.14 760.587L716.809 758.229L713.478 755.864L710.147 753.493L706.817 751.115L703.487 748.733L700.158 746.345L696.829 743.953L693.5 741.558L690.171 739.159L686.842 736.757L683.514 734.353L680.186 731.948L676.857 729.541L673.529 727.134L670.201 724.727L666.873 722.321L663.544 719.915L660.216 717.512L656.887 715.11L653.558 712.711L650.229 710.315L646.9 707.924L643.571 705.536L640.241 703.153L636.911 700.776L633.581 698.404L630.25 696.039L626.918 693.682L623.587 691.331L620.254 688.989L616.922 686.655L613.588 684.33L610.254 682.015L606.92 679.71L603.585 677.415L600.249 675.132L596.912 672.861L593.575 670.601L590.236 668.355L586.897 666.121L583.558 663.901L580.217 661.695L576.875 659.504L573.533 657.329L570.189 655.168L566.845 653.024L563.499 650.897L560.152 648.786L556.805 646.693L553.456 644.618L550.106 642.562L546.755 640.524L543.403 638.506L540.049 636.508L536.694 634.53L533.338 632.572L529.981 630.636L526.622 628.721L523.262 626.828L519.901 624.958L516.538 623.11L513.173 621.285L509.808 619.484L506.44 617.707L503.072 615.955L499.701 614.227L496.329 612.524L492.956 610.847L489.581 609.195L486.204 607.57L482.826 605.971L479.446 604.399L476.065 602.855L472.681 601.338L469.296 599.848L465.909 598.387L462.521 596.955L459.13 595.551L455.738 594.176L452.344 592.831L448.949 591.515L445.551 590.229L442.151 588.974L438.75 587.749L435.347 586.554L431.941 585.39L428.534 584.258L425.125 583.157L421.714 582.088L418.301 581.05L414.886 580.045L411.469 579.071L408.05 578.13L404.629 577.222L401.206 576.347L397.781 575.504L394.354 574.694L390.925 573.918L387.494 573.175L384.06 572.465L380.625 571.79L377.187 571.147L373.748 570.539L370.306 569.965L366.862 569.424L363.416 568.918L359.968 568.446L356.518 568.008L353.066 567.604L349.612 567.235L346.155 566.9L342.697 566.6L339.236 566.334L335.773 566.102L332.308 565.905L328.841 565.742L325.371 565.614L321.9 565.52L318.427 565.461L314.951 565.435L311.473 565.445L307.993 565.488L304.511 565.565L301.027 565.677L297.541 565.823L294.052 566.002L290.562 566.216L287.069 566.463L283.575 566.743L280.078 567.058L276.579 567.405L273.079 567.786L269.576 568.2L266.071 568.647L262.564 569.126L259.055 569.638L255.544 570.183L252.031 570.76L248.516 571.369L244.999 572.009L241.481 572.681L237.96 573.385L234.437 574.12L230.913 574.885L227.386 575.682L223.858 576.509L220.327 577.366L216.795 578.253L213.261 579.169L209.726 580.115L206.188 581.09L202.649 582.094L199.108 583.126L195.565 584.187L192.02 585.275L188.474 586.391L184.926 587.534L181.376 588.704L177.825 589.901L174.272 591.123L170.718 592.372L167.161 593.646L163.604 594.945L160.045 596.269L156.484 597.617L152.922 598.989L149.358 600.385L145.793 601.804L142.227 603.246L138.659 604.71L135.09 606.196L131.519 607.704L127.947 609.232L124.374 610.782L120.8 612.351L117.224 613.941L113.647 615.55L110.069 617.177L106.49 618.823L102.91 620.488L99.3289 622.169L95.7465 623.868L92.1631 625.583L88.5787 627.315L84.9934 629.062L81.4071 630.824L77.8199 632.601L74.2318 634.392L70.6429 636.197L67.0532 638.015L63.4626 639.845L59.8714 641.688L56.2794 643.543L52.6867 645.408L49.0933 647.285L45.4994 649.171L41.9048 651.067L38.3097 652.972L34.714 654.886L31.1178 656.807L27.5212 658.737L23.9242 660.673L20.3267 662.615L16.7289 664.564L13.1307 666.518L9.53227 668.477L5.93354 670.44L2.33459 672.407L-1.26457 674.377L-4.8639 676.35L-8.46335 678.325L-12.0629 680.301L-15.6625 682.279" stroke="url(#paint4_linear_106_252)" stroke-opacity="0.6" stroke-width="5" stroke-miterlimit="10" stroke-linecap="round" stroke-linejoin="round"/>
<g clip-path="url(#clip4_106_252)">
<path d="M1442.88 1380.27L1439.05 1378.36L1435.21 1376.44L1431.37 1374.53L1427.53 1372.61L1423.7 1370.7L1419.86 1368.78L1416.02 1366.87L1412.18 1364.96L1408.35 1363.05L1404.51 1361.15L1400.67 1359.24L1396.83 1357.34L1392.99 1355.44L1389.14 1353.55L1385.3 1351.66L1381.46 1349.77L1377.61 1347.88L1373.77 1346L1369.92 1344.12L1366.08 1342.25L1362.23 1340.38L1358.38 1338.52L1354.53 1336.66L1350.67 1334.81L1346.82 1332.96L1342.97 1331.12L1339.11 1329.28L1335.25 1327.45L1331.39 1325.63L1327.53 1323.81L1323.67 1322L1319.81 1320.2L1315.94 1318.41L1312.08 1316.62L1308.21 1314.84L1304.34 1313.06L1300.46 1311.3L1296.59 1309.54L1292.71 1307.79L1288.83 1306.05L1284.95 1304.32L1281.07 1302.6L1277.18 1300.88L1273.3 1299.18L1269.41 1297.48L1265.51 1295.8L1261.62 1294.12L1257.72 1292.46L1253.82 1290.8L1249.92 1289.16L1246.02 1287.52L1242.11 1285.9L1238.2 1284.29L1234.29 1282.69L1230.38 1281.1L1226.46 1279.52L1222.54 1277.95L1218.62 1276.39L1214.69 1274.85L1210.76 1273.32L1206.83 1271.8L1202.9 1270.29L1198.96 1268.79L1195.02 1267.31L1191.08 1265.84L1187.13 1264.38L1183.18 1262.93L1179.23 1261.5L1175.27 1260.08L1171.32 1258.67L1167.35 1257.28L1163.39 1255.9L1159.42 1254.53L1155.45 1253.18L1151.48 1251.84L1147.5 1250.52L1143.52 1249.2L1139.53 1247.91L1135.54 1246.62L1131.55 1245.35L1127.56 1244.1L1123.56 1242.86L1119.56 1241.63L1115.55 1240.42L1111.55 1239.22L1107.53 1238.03L1103.52 1236.86L1099.5 1235.71L1095.48 1234.57L1091.45 1233.44L1087.42 1232.33L1083.39 1231.24L1079.36 1230.15L1075.32 1229.09L1071.27 1228.04L1067.23 1227L1063.18 1225.98L1059.12 1224.97L1055.06 1223.98L1051 1223L1046.94 1222.04L1042.87 1221.09L1038.8 1220.15L1034.72 1219.24L1030.65 1218.33L1026.56 1217.44L1022.48 1216.57L1018.39 1215.71L1014.3 1214.87L1010.2 1214.04L1006.1 1213.22L1002 1212.42L997.89 1211.64L993.78 1210.86L989.666 1210.11L985.549 1209.37L981.429 1208.64L977.305 1207.92L973.177 1207.23L969.046 1206.54L964.912 1205.87L960.775 1205.21L956.634 1204.57L952.49 1203.94L948.342 1203.33L944.191 1202.72L940.037 1202.14L935.88 1201.56L931.719 1201L927.556 1200.46L923.389 1199.92L919.219 1199.4L915.046 1198.89L910.87 1198.4L906.69 1197.91L902.508 1197.45L898.323 1196.99L894.135 1196.54L889.943 1196.11L885.749 1195.69L881.552 1195.28L877.353 1194.89L873.15 1194.5L868.945 1194.13L864.736 1193.77L860.526 1193.42L856.312 1193.08L852.096 1192.75L847.877 1192.43L843.656 1192.13L839.433 1191.83L835.206 1191.55L830.978 1191.27L826.747 1191.01L822.513 1190.75L818.278 1190.5L814.04 1190.27L809.8 1190.04L805.557 1189.82L801.313 1189.61L797.066 1189.41L792.818 1189.22L788.567 1189.04L784.314 1188.86L780.06 1188.69L775.804 1188.53L771.546 1188.38L767.286 1188.24L763.024 1188.1L758.761 1187.97L754.496 1187.85L750.23 1187.73L745.962 1187.62L741.692 1187.51L737.422 1187.41L733.149 1187.32L728.876 1187.23L724.601 1187.15L720.325 1187.07L716.048 1187L711.77 1186.93L707.491 1186.87L703.211 1186.81L698.93 1186.75L694.648 1186.7L690.365 1186.65L686.081 1186.61L681.797 1186.57L677.512 1186.53L673.226 1186.49L668.94 1186.46L664.653 1186.42L660.366 1186.39L656.079 1186.36L651.791 1186.34L647.503 1186.31L643.214 1186.28L638.926 1186.26L634.637 1186.24L630.349 1186.21L626.06 1186.19L621.771 1186.16L617.483 1186.14L613.194 1186.11L608.906 1186.09L604.619 1186.06L600.331 1186.03L596.044 1186L591.757 1185.97L587.471 1185.93L583.185 1185.9L578.9 1185.86L574.616 1185.81L570.332 1185.77L566.05 1185.72L561.768 1185.67L557.486 1185.61L553.206 1185.55L548.927 1185.49L544.649 1185.42L540.372 1185.35L536.096 1185.27L531.821 1185.19L527.548 1185.1L523.276 1185.01L519.005 1184.91L514.735 1184.8L510.468 1184.69L506.201 1184.58L501.936 1184.45L497.673 1184.32L493.411 1184.18L489.152 1184.04L484.894 1183.89L480.637 1183.73L476.383 1183.56L472.13 1183.39L467.88 1183.2L463.631 1183.01L459.384 1182.81L455.14 1182.6L450.898 1182.38L446.658 1182.16L442.42 1181.92L438.184 1181.67L433.951 1181.42L429.72 1181.15L425.491 1180.88L421.265 1180.59L417.041 1180.29L412.82 1179.99L408.601 1179.67L404.385 1179.34L400.172 1179L395.961 1178.65L391.753 1178.29L387.547 1177.92L383.345 1177.54L379.145 1177.14L374.948 1176.73L370.754 1176.31L366.563 1175.88L362.374 1175.43L358.189 1174.98L354.007 1174.51L349.828 1174.03L345.651 1173.53L341.478 1173.02L337.308 1172.5L333.142 1171.97L328.978 1171.42L324.817 1170.86L320.66 1170.29L316.506 1169.7L312.355 1169.1L308.208 1168.48L304.063 1167.85L299.923 1167.21L295.785 1166.55L291.651 1165.88L287.52 1165.2L283.393 1164.5L279.269 1163.78L275.148 1163.06L271.031 1162.31L266.917 1161.56L262.807 1160.79L258.7 1160L254.597 1159.2L250.497 1158.39L246.401 1157.56L242.308 1156.71L238.219 1155.85L234.133 1154.98L230.051 1154.09L225.972 1153.19L221.897 1152.27L217.826 1151.34L213.758 1150.39L209.693 1149.42L205.632 1148.45L201.575 1147.45L197.521 1146.45L193.471 1145.42L189.424 1144.39L185.381 1143.33L181.341 1142.27L177.305 1141.19L173.273 1140.09L169.244 1138.98L165.218 1137.85L161.196 1136.71L157.178 1135.56L153.162 1134.39L149.151 1133.2L145.143 1132.01L141.138 1130.79L137.137 1129.57L133.139 1128.32L129.144 1127.07L125.153 1125.8L121.165 1124.52L117.181 1123.22L113.2 1121.91L109.222 1120.58L105.247 1119.24L101.276 1117.89L97.3079 1116.52L93.3431 1115.14L89.3815 1113.75L85.423 1112.34L81.4676 1110.92L77.5154 1109.49L73.5663 1108.04L69.6202 1106.59L65.6771 1105.11L61.737 1103.63L57.7999 1102.13L53.8658 1100.63L49.9345 1099.11L46.0061 1097.57L42.0806 1096.03L38.1578 1094.47L34.2378 1092.91L30.3206 1091.33L26.4061 1089.74L22.4942 1088.13L18.5849 1086.52L14.6783 1084.9L10.7742 1083.26L6.87256 1081.62L2.97343 1079.96L-0.923274 1078.3L-4.81759 1076.62L-8.70955 1074.94L-12.5992 1073.24L-16.4866 1071.54L-20.3718 1069.83L-24.2548 1068.1L-28.1357 1066.37L-32.0144 1064.63L-35.8912 1062.88L-39.7659 1061.13L-43.6387 1059.36L-47.5096 1057.59L-51.3786 1055.81L-55.2459 1054.02L-59.1114 1052.22L-62.9751 1050.42L-66.8372 1048.61L-70.6977 1046.79L-74.5566 1044.97L-78.414 1043.14L-82.27 1041.3L-86.1245 1039.46L-89.9777 1037.61L-93.8296 1035.76L-97.6802 1033.9L-101.53 1032.04L-105.378 1030.17L-109.225 1028.3L-113.071 1026.42L-116.916 1024.54L-120.761 1022.66L-124.604 1020.77L-128.446 1018.87L-132.288 1016.98L-136.129 1015.08L-139.969 1013.18L-143.809 1011.28L-147.648 1009.37L-151.487 1007.46L-155.325 1005.55L-159.163 1003.64L-163.001 1001.73L-166.838 999.812L-170.675 997.897L-174.512 995.981L-178.348 994.065" stroke="url(#paint5_linear_106_252)" stroke-opacity="0.6" stroke-width="5" stroke-miterlimit="10" stroke-linecap="round" stroke-linejoin="round"/>
</g>
<g clip-path="url(#clip5_106_252)">
<path d="M291.347 -49.406L296.404 -50.0469L301.456 -50.6814L306.497 -51.3033L311.523 -51.9061L316.528 -52.4836L321.507 -53.0296L326.455 -53.538L331.367 -54.0026L336.237 -54.4175L341.062 -54.7769L345.837 -55.075L350.556 -55.3062L355.215 -55.4651L359.81 -55.5464L364.338 -55.545L368.792 -55.4559L373.171 -55.2743L377.469 -54.9959L381.684 -54.6162L385.812 -54.1311L389.85 -53.5368L393.795 -52.8298L397.644 -52.0065L401.394 -51.0639L405.044 -49.9992L408.591 -48.8098L412.033 -47.4934L415.368 -46.048L418.596 -44.4718L421.714 -42.7634L424.723 -40.9218L427.621 -38.9459L430.407 -36.8353L433.082 -34.5898L435.646 -32.2094L438.099 -29.6943L440.441 -27.0454L442.674 -24.2635L444.797 -21.3498L446.814 -18.306L448.724 -15.1338L450.53 -11.8353L452.234 -8.41288L453.838 -4.86928L455.345 -1.20739L456.756 2.56958L458.075 6.45821L459.305 10.4548L460.45 14.5554L461.512 18.7558L462.495 23.0516L463.403 27.4383L464.24 31.9111L465.01 36.4649L465.718 41.0946L466.367 45.7948L466.963 50.56L467.51 55.3846L468.012 60.2628L468.475 65.1888L468.904 70.1564L469.304 75.1597L469.679 80.1924L470.034 85.2483L470.376 90.3212L470.709 95.4046L471.039 100.492L471.371 105.578L471.709 110.655L472.06 115.717L472.428 120.758L472.818 125.772L473.237 130.752L473.688 135.693L474.177 140.588L474.708 145.431L475.287 150.216L475.918 154.939L476.606 159.593L477.355 164.172L478.169 168.673L479.053 173.089L480.011 177.415L481.046 181.648L482.163 185.782L483.364 189.814L484.653 193.739L486.033 197.554L487.507 201.254L489.079 204.838L490.749 208.301L492.521 211.641L494.396 214.855L496.377 217.942L498.465 220.899L500.661 223.725L502.967 226.419L505.383 228.979L507.909 231.404L510.547 233.694L513.297 235.85L516.158 237.871L519.129 239.757L522.211 241.51L525.402 243.13L528.702 244.619L532.109 245.978L535.621 247.209L539.236 248.315L542.953 249.298L546.77 250.161L550.683 250.907L554.69 251.538L558.788 252.059L562.975 252.473L567.246 252.785L571.598 252.998L576.028 253.118L580.531 253.148L585.104 253.094L589.743 252.96L594.443 252.752L599.199 252.476L604.008 252.136L608.864 251.739L613.762 251.291L618.699 250.796L623.668 250.262L628.665 249.694L633.684 249.099L638.721 248.483L643.77 247.852L648.826 247.213L653.884 246.571L658.938 245.934L663.984 245.307L669.015 244.697L674.028 244.11L679.016 243.553L683.975 243.032L688.899 242.552L693.784 242.12L698.625 241.741L703.417 241.422L708.155 241.168L712.834 240.984L717.452 240.876L722.002 240.85L726.481 240.909L730.886 241.059L735.211 241.305L739.454 241.65L743.612 242.1L747.68 242.657L751.656 243.326L755.537 244.111L759.321 245.013L763.004 246.037L766.586 247.184L770.063 248.458L773.434 249.86L776.698 251.393L779.853 253.057L782.898 254.854L785.833 256.785L788.656 258.851L791.368 261.051L793.969 263.387L796.459 265.857L798.838 268.461L801.107 271.199L803.267 274.069L805.319 277.07L807.265 280.199L809.105 283.456L810.843 286.837L812.48 290.341L814.019 293.964L815.461 297.703L816.811 301.554L818.071 305.515L819.243 309.582L820.332 313.749L821.341 318.014L822.274 322.371L823.134 326.816L823.926 331.343L824.654 335.948L825.323 340.625L825.936 345.369L826.498 350.175L827.015 355.036L827.491 359.947L827.93 364.901L828.339 369.893L828.721 374.917L829.083 379.966L829.429 385.033L829.765 390.114L830.095 395.201L830.425 400.288L830.761 405.369L831.107 410.436L831.468 415.485L831.851 420.509L832.259 425.501L832.699 430.455L833.175 435.366L833.692 440.227L834.254 445.033L834.867 449.777L835.536 454.454L836.264 459.059L837.056 463.586L837.916 468.031L838.849 472.388L839.858 476.652L840.947 480.82L842.119 484.886L843.379 488.847L844.728 492.699L846.171 496.438L847.71 500.061L849.347 503.565L851.084 506.946L852.925 510.203L854.871 513.332L856.923 516.333L859.083 519.203L861.352 521.941L863.731 524.545L866.22 527.015L868.821 529.351L871.534 531.551L874.357 533.617L877.292 535.548L880.337 537.345L883.492 539.009L886.756 540.542L890.127 541.944L893.604 543.218L897.185 544.365L900.869 545.389L904.652 546.291L908.533 547.076L912.51 547.745L916.578 548.302L920.735 548.752L924.978 549.097L929.304 549.343L933.708 549.493L938.188 549.552L942.738 549.526L947.355 549.418L952.035 549.234L956.773 548.98L961.565 548.661L966.406 548.282L971.291 547.85L976.215 547.37L981.174 546.849L986.162 546.292L991.174 545.705L996.206 545.095L1001.25 544.468L1006.31 543.831L1011.36 543.189L1016.42 542.55L1021.47 541.919L1026.51 541.303L1031.53 540.708L1036.52 540.14L1041.49 539.606L1046.43 539.111L1051.33 538.663L1056.18 538.266L1060.99 537.926L1065.75 537.65L1070.45 537.442L1075.09 537.308L1079.66 537.254L1084.16 537.284L1088.59 537.403L1092.94 537.617L1097.21 537.929L1101.4 538.343L1105.5 538.864L1109.51 539.495L1113.42 540.241L1117.24 541.104L1120.95 542.087L1124.57 543.193L1128.08 544.424L1131.49 545.783L1134.79 547.272L1137.98 548.892L1141.06 550.645L1144.03 552.531L1146.89 554.552L1149.64 556.707L1152.28 558.998L1154.81 561.423L1157.22 563.983L1159.53 566.677L1161.72 569.502L1163.81 572.46L1165.79 575.547L1167.67 578.761L1169.44 582.101L1171.11 585.564L1172.68 589.148L1174.16 592.848L1175.54 596.663L1176.83 600.588L1178.03 604.62L1179.14 608.754L1180.18 612.987L1181.14 617.313L1182.02 621.729L1182.83 626.23L1183.58 630.809L1184.27 635.463L1184.9 640.186L1185.48 644.971L1186.01 649.814L1186.5 654.709L1186.95 659.65L1187.37 664.63L1187.76 669.644L1188.13 674.685L1188.48 679.747L1188.82 684.824L1189.15 689.91L1189.48 694.997L1189.81 700.081L1190.16 705.154L1190.51 710.21L1190.89 715.242L1191.29 720.246L1191.71 725.213L1192.18 730.139L1192.68 735.017L1193.23 739.842L1193.82 744.607L1194.47 749.307L1195.18 753.937L1195.95 758.491L1196.79 762.964L1197.7 767.35L1198.68 771.646L1199.74 775.847L1200.88 779.947L1202.11 783.944L1203.43 787.832L1204.85 791.609L1206.35 795.271L1207.96 798.815L1209.66 802.237L1211.47 805.536L1213.38 808.708L1215.39 811.752L1217.52 814.665L1219.75 817.447L1222.09 820.096L1224.54 822.611L1227.11 824.992L1229.78 827.237L1232.57 829.348L1235.47 831.324L1238.48 833.165L1241.59 834.874L1244.82 836.45L1248.16 837.895L1251.6 839.212L1255.15 840.401L1258.8 841.466L1262.55 842.408L1266.39 843.232L1270.34 843.939L1274.38 844.533L1278.51 845.018L1282.72 845.398L1287.02 845.676L1291.4 845.858L1295.85 845.947L1300.38 845.948L1304.97 845.867L1309.63 845.708L1314.35 845.477L1319.13 845.179L1323.95 844.82L1328.82 844.405L1333.74 843.94L1338.68 843.432L1343.66 842.886L1348.67 842.308L1353.69 841.705L1358.73 841.083L1363.79 840.449" stroke="url(#paint6_linear_106_252)" stroke-width="5" stroke-miterlimit="10" stroke-linecap="round" stroke-linejoin="round"/>
</g>
<g clip-path="url(#clip6_106_252)">
<path d="M-79.5483 2468.05L-76.3046 2466.4L-73.0608 2464.74L-69.817 2463.08L-66.573 2461.43L-63.3288 2459.77L-60.0844 2458.12L-56.8397 2456.47L-53.5947 2454.82L-50.3493 2453.17L-47.1036 2451.52L-43.8573 2449.88L-40.6106 2448.24L-37.3633 2446.6L-34.1155 2444.97L-30.867 2443.34L-27.6178 2441.71L-24.3679 2440.09L-21.1172 2438.47L-17.8657 2436.86L-14.6134 2435.25L-11.3601 2433.65L-8.10594 2432.05L-4.85077 2430.46L-1.59457 2428.87L1.6627 2427.29L4.92108 2425.72L8.18062 2424.15L11.4414 2422.59L14.7033 2421.04L17.9666 2419.49L21.2312 2417.95L24.4971 2416.42L27.7645 2414.9L31.0333 2413.38L34.3035 2411.88L37.5753 2410.38L40.8487 2408.89L44.1236 2407.41L47.4002 2405.94L50.6785 2404.48L53.9584 2403.03L57.2401 2401.59L60.5236 2400.16L63.809 2398.74L67.0961 2397.33L70.3852 2395.93L73.6762 2394.54L76.9692 2393.16L80.2641 2391.8L83.5611 2390.44L86.8601 2389.1L90.1612 2387.77L93.4645 2386.45L96.7699 2385.14L100.077 2383.85L103.387 2382.57L106.699 2381.3L110.014 2380.04L113.33 2378.8L116.649 2377.57L119.97 2376.36L123.294 2375.16L126.62 2373.97L129.949 2372.79L133.28 2371.63L136.613 2370.49L139.949 2369.35L143.288 2368.24L146.629 2367.13L149.972 2366.04L153.318 2364.97L156.667 2363.91L160.019 2362.87L163.373 2361.84L166.73 2360.82L170.089 2359.82L173.451 2358.84L176.816 2357.87L180.184 2356.92L183.554 2355.99L186.927 2355.07L190.303 2354.16L193.682 2353.27L197.064 2352.4L200.448 2351.54L203.835 2350.7L207.225 2349.88L210.618 2349.07L214.014 2348.28L217.412 2347.5L220.814 2346.74L224.218 2346L227.625 2345.27L231.036 2344.56L234.449 2343.87L237.865 2343.19L241.284 2342.53L244.705 2341.89L248.13 2341.26L251.558 2340.65L254.988 2340.06L258.421 2339.48L261.858 2338.92L265.297 2338.38L268.739 2337.85L272.184 2337.34L275.632 2336.84L279.083 2336.36L282.537 2335.9L285.993 2335.46L289.453 2335.03L292.915 2334.61L296.38 2334.22L299.848 2333.84L303.319 2333.47L306.793 2333.13L310.269 2332.79L313.749 2332.48L317.231 2332.18L320.716 2331.89L324.204 2331.63L327.694 2331.37L331.187 2331.14L334.683 2330.91L338.182 2330.71L341.683 2330.52L345.187 2330.34L348.694 2330.18L352.203 2330.03L355.715 2329.9L359.229 2329.79L362.746 2329.69L366.266 2329.6L369.788 2329.53L373.313 2329.47L376.84 2329.43L380.369 2329.4L383.901 2329.38L387.436 2329.38L390.973 2329.39L394.512 2329.41L398.053 2329.45L401.597 2329.5L405.143 2329.56L408.691 2329.64L412.242 2329.73L415.794 2329.83L419.349 2329.95L422.906 2330.07L426.465 2330.21L430.026 2330.36L433.59 2330.52L437.155 2330.69L440.722 2330.88L444.291 2331.07L447.862 2331.28L451.435 2331.49L455.009 2331.72L458.585 2331.96L462.164 2332.2L465.743 2332.46L469.325 2332.72L472.908 2333L476.493 2333.28L480.079 2333.58L483.667 2333.88L487.256 2334.19L490.847 2334.5L494.439 2334.83L498.033 2335.17L501.627 2335.51L505.224 2335.86L508.821 2336.21L512.419 2336.57L516.019 2336.94L519.62 2337.32L523.222 2337.7L526.825 2338.09L530.429 2338.48L534.033 2338.88L537.639 2339.28L541.246 2339.69L544.853 2340.11L548.461 2340.52L552.07 2340.94L555.68 2341.37L559.29 2341.8L562.901 2342.23L566.512 2342.67L570.124 2343.11L573.736 2343.55L577.349 2343.99L580.962 2344.44L584.576 2344.88L588.189 2345.33L591.803 2345.78L595.417 2346.23L599.032 2346.68L602.646 2347.14L606.26 2347.59L609.875 2348.04L613.489 2348.49L617.103 2348.95L620.717 2349.4L624.331 2349.85L627.945 2350.3L631.558 2350.74L635.171 2351.19L638.784 2351.63L642.396 2352.07L646.008 2352.51L649.62 2352.95L653.23 2353.38L656.841 2353.81L660.45 2354.24L664.059 2354.66L667.667 2355.07L671.275 2355.49L674.881 2355.9L678.487 2356.3L682.092 2356.7L685.696 2357.09L689.299 2357.48L692.901 2357.86L696.501 2358.24L700.101 2358.61L703.7 2358.97L707.297 2359.32L710.893 2359.67L714.488 2360.01L718.081 2360.35L721.674 2360.67L725.264 2360.99L728.854 2361.3L732.441 2361.6L736.028 2361.9L739.612 2362.18L743.196 2362.46L746.777 2362.72L750.357 2362.98L753.935 2363.22L757.511 2363.46L761.086 2363.69L764.659 2363.9L768.23 2364.11L771.799 2364.3L775.366 2364.49L778.931 2364.66L782.494 2364.82L786.055 2364.97L789.614 2365.11L793.171 2365.23L796.726 2365.35L800.279 2365.45L803.829 2365.54L807.377 2365.61L810.924 2365.68L814.467 2365.73L818.009 2365.77L821.548 2365.79L825.085 2365.8L828.619 2365.8L832.151 2365.78L835.681 2365.75L839.208 2365.71L842.732 2365.65L846.255 2365.58L849.774 2365.49L853.291 2365.39L856.806 2365.28L860.318 2365.14L863.827 2365L867.334 2364.84L870.837 2364.66L874.339 2364.47L877.837 2364.27L881.333 2364.04L884.827 2363.81L888.317 2363.55L891.805 2363.29L895.29 2363L898.772 2362.7L902.251 2362.39L905.728 2362.05L909.201 2361.71L912.672 2361.34L916.14 2360.96L919.605 2360.57L923.068 2360.15L926.527 2359.72L929.984 2359.28L933.438 2358.82L936.888 2358.34L940.336 2357.84L943.781 2357.33L947.224 2356.8L950.663 2356.26L954.099 2355.7L957.532 2355.12L960.963 2354.53L964.391 2353.92L967.815 2353.29L971.237 2352.65L974.656 2351.99L978.072 2351.31L981.485 2350.61L984.895 2349.91L988.302 2349.18L991.707 2348.44L995.108 2347.68L998.507 2346.9L1001.9 2346.11L1005.3 2345.3L1008.69 2344.48L1012.07 2343.64L1015.46 2342.78L1018.84 2341.91L1022.22 2341.02L1025.59 2340.11L1028.97 2339.19L1032.34 2338.26L1035.7 2337.3L1039.07 2336.34L1042.43 2335.35L1045.79 2334.36L1049.15 2333.34L1052.5 2332.31L1055.85 2331.27L1059.2 2330.21L1062.55 2329.14L1065.89 2328.05L1069.23 2326.94L1072.57 2325.83L1075.91 2324.69L1079.24 2323.55L1082.57 2322.39L1085.9 2321.21L1089.23 2320.02L1092.55 2318.82L1095.87 2317.61L1099.19 2316.38L1102.51 2315.13L1105.82 2313.88L1109.13 2312.61L1112.44 2311.33L1115.75 2310.04L1119.06 2308.73L1122.36 2307.41L1125.66 2306.08L1128.96 2304.74L1132.26 2303.38L1135.55 2302.02L1138.84 2300.64L1142.14 2299.25L1145.42 2297.85L1148.71 2296.44L1152 2295.02L1155.28 2293.59L1158.56 2292.15L1161.84 2290.7L1165.12 2289.24L1168.4 2287.77L1171.67 2286.29L1174.95 2284.8L1178.22 2283.3L1181.49 2281.8L1184.76 2280.28L1188.02 2278.76L1191.29 2277.23L1194.55 2275.69L1197.82 2274.14L1201.08 2272.59L1204.34 2271.03L1207.6 2269.46L1210.86 2267.89L1214.12 2266.31L1217.37 2264.72L1220.63 2263.13L1223.88 2261.53L1227.13 2259.93L1230.39 2258.32L1233.64 2256.71L1236.89 2255.09L1240.14 2253.47L1243.39 2251.84L1246.64 2250.21L1249.88 2248.58L1253.13 2246.94L1256.38 2245.3L1259.62 2243.66L1262.87 2242.01L1266.12 2240.36L1269.36 2238.71L1272.6 2237.06L1275.85 2235.41L1279.09 2233.75L1282.34 2232.1L1285.58 2230.44L1288.83 2228.78" stroke="url(#paint7_linear_106_252)" stroke-opacity="0.6" stroke-width="5" stroke-miterlimit="10" stroke-linecap="round" stroke-linejoin="round"/>
</g>
<g clip-path="url(#clip7_106_252)">
<path d="M1385.1 3184.38L1381.68 3182.3L1378.26 3180.21L1374.84 3178.12L1371.42 3176.04L1368 3173.96L1364.58 3171.88L1361.16 3169.8L1357.73 3167.72L1354.31 3165.64L1350.89 3163.57L1347.46 3161.49L1344.04 3159.43L1340.61 3157.36L1337.19 3155.3L1333.76 3153.24L1330.33 3151.18L1326.9 3149.13L1323.47 3147.08L1320.04 3145.04L1316.6 3143L1313.17 3140.97L1309.73 3138.94L1306.29 3136.92L1302.85 3134.91L1299.41 3132.9L1295.97 3130.89L1292.52 3128.89L1289.08 3126.9L1285.63 3124.92L1282.18 3122.94L1278.72 3120.97L1275.27 3119.01L1271.81 3117.05L1268.35 3115.11L1264.89 3113.17L1261.42 3111.24L1257.96 3109.32L1254.49 3107.41L1251.01 3105.51L1247.54 3103.61L1244.06 3101.73L1240.58 3099.85L1237.1 3097.99L1233.61 3096.13L1230.12 3094.29L1226.63 3092.46L1223.14 3090.63L1219.64 3088.82L1216.14 3087.02L1212.63 3085.23L1209.13 3083.45L1205.62 3081.69L1202.1 3079.93L1198.58 3078.19L1195.06 3076.46L1191.54 3074.74L1188.01 3073.03L1184.48 3071.34L1180.94 3069.66L1177.4 3067.99L1173.86 3066.34L1170.31 3064.7L1166.76 3063.07L1163.21 3061.46L1159.65 3059.86L1156.09 3058.27L1152.52 3056.7L1148.95 3055.14L1145.38 3053.59L1141.8 3052.06L1138.22 3050.55L1134.63 3049.04L1131.04 3047.56L1127.45 3046.09L1123.85 3044.63L1120.25 3043.19L1116.64 3041.76L1113.03 3040.35L1109.41 3038.95L1105.79 3037.57L1102.17 3036.2L1098.54 3034.85L1094.9 3033.52L1091.27 3032.2L1087.62 3030.9L1083.98 3029.61L1080.33 3028.34L1076.67 3027.08L1073.01 3025.84L1069.35 3024.61L1065.68 3023.41L1062 3022.21L1058.32 3021.04L1054.64 3019.88L1050.95 3018.73L1047.26 3017.6L1043.56 3016.49L1039.86 3015.4L1036.16 3014.32L1032.44 3013.25L1028.73 3012.21L1025.01 3011.18L1021.28 3010.16L1017.56 3009.16L1013.82 3008.18L1010.08 3007.21L1006.34 3006.26L1002.59 3005.33L998.842 3004.41L995.085 3003.51L991.324 3002.62L987.558 3001.75L983.788 3000.9L980.014 3000.06L976.234 2999.24L972.451 2998.43L968.663 2997.64L964.87 2996.86L961.073 2996.1L957.272 2995.36L953.466 2994.63L949.656 2993.92L945.842 2993.22L942.023 2992.53L938.2 2991.87L934.373 2991.21L930.542 2990.57L926.706 2989.95L922.866 2989.34L919.022 2988.75L915.174 2988.17L911.322 2987.6L907.466 2987.05L903.606 2986.51L899.742 2985.99L895.874 2985.48L892.002 2984.98L888.126 2984.5L884.247 2984.03L880.364 2983.57L876.477 2983.13L872.586 2982.7L868.692 2982.28L864.794 2981.88L860.892 2981.48L856.987 2981.1L853.079 2980.74L849.167 2980.38L845.252 2980.04L841.334 2979.7L837.412 2979.38L833.487 2979.07L829.559 2978.77L825.628 2978.49L821.694 2978.21L817.756 2977.94L813.816 2977.69L809.873 2977.44L805.927 2977.21L801.979 2976.98L798.028 2976.76L794.074 2976.55L790.117 2976.36L786.158 2976.17L782.197 2975.99L778.233 2975.81L774.266 2975.65L770.298 2975.49L766.327 2975.34L762.354 2975.2L758.379 2975.07L754.402 2974.94L750.423 2974.82L746.442 2974.71L742.46 2974.6L738.475 2974.5L734.489 2974.41L730.501 2974.32L726.512 2974.24L722.521 2974.16L718.529 2974.09L714.536 2974.02L710.541 2973.96L706.545 2973.9L702.547 2973.84L698.549 2973.79L694.55 2973.74L690.549 2973.7L686.548 2973.66L682.547 2973.62L678.544 2973.58L674.541 2973.55L670.537 2973.51L666.532 2973.48L662.528 2973.46L658.523 2973.43L654.517 2973.4L650.511 2973.38L646.506 2973.35L642.5 2973.33L638.494 2973.3L634.488 2973.28L630.483 2973.25L626.477 2973.22L622.472 2973.2L618.467 2973.17L614.463 2973.14L610.459 2973.11L606.456 2973.07L602.453 2973.04L598.451 2973L594.45 2972.96L590.45 2972.91L586.451 2972.86L582.452 2972.81L578.455 2972.76L574.459 2972.7L570.464 2972.63L566.471 2972.57L562.478 2972.49L558.488 2972.41L554.498 2972.33L550.51 2972.24L546.524 2972.15L542.54 2972.05L538.557 2971.94L534.576 2971.83L530.597 2971.71L526.62 2971.58L522.645 2971.45L518.673 2971.31L514.702 2971.16L510.733 2971L506.767 2970.84L502.803 2970.67L498.842 2970.49L494.883 2970.3L490.926 2970.1L486.972 2969.89L483.021 2969.67L479.072 2969.45L475.126 2969.21L471.183 2968.97L467.243 2968.71L463.306 2968.44L459.372 2968.17L455.441 2967.88L451.513 2967.58L447.588 2967.27L443.666 2966.95L439.748 2966.62L435.833 2966.27L431.921 2965.92L428.012 2965.55L424.107 2965.17L420.206 2964.78L416.308 2964.37L412.414 2963.95L408.523 2963.52L404.636 2963.08L400.753 2962.63L396.873 2962.16L392.998 2961.67L389.126 2961.18L385.258 2960.67L381.394 2960.14L377.534 2959.6L373.677 2959.05L369.825 2958.49L365.977 2957.91L362.133 2957.31L358.294 2956.7L354.458 2956.08L350.627 2955.44L346.799 2954.79L342.977 2954.12L339.158 2953.44L335.343 2952.74L331.533 2952.02L327.728 2951.29L323.926 2950.55L320.13 2949.79L316.337 2949.01L312.549 2948.22L308.765 2947.42L304.986 2946.59L301.212 2945.75L297.441 2944.9L293.676 2944.03L289.915 2943.14L286.158 2942.24L282.406 2941.32L278.659 2940.39L274.916 2939.44L271.178 2938.47L267.444 2937.49L263.715 2936.49L259.99 2935.48L256.27 2934.45L252.555 2933.4L248.844 2932.34L245.138 2931.26L241.437 2930.16L237.74 2929.05L234.048 2927.92L230.36 2926.78L226.677 2925.62L222.998 2924.44L219.324 2923.25L215.655 2922.04L211.99 2920.81L208.329 2919.57L204.673 2918.32L201.022 2917.05L197.375 2915.76L193.733 2914.45L190.095 2913.13L186.461 2911.8L182.832 2910.45L179.207 2909.08L175.587 2907.7L171.971 2906.3L168.36 2904.89L164.752 2903.47L161.149 2902.02L157.55 2900.57L153.956 2899.09L150.365 2897.61L146.779 2896.11L143.197 2894.59L139.619 2893.06L136.045 2891.52L132.475 2889.96L128.909 2888.38L125.347 2886.8L121.789 2885.2L118.235 2883.58L114.685 2881.95L111.138 2880.31L107.595 2878.66L104.056 2876.99L100.521 2875.31L96.9894 2873.62L93.4613 2871.91L89.9368 2870.19L86.4157 2868.46L82.8981 2866.72L79.3839 2864.97L75.873 2863.2L72.3654 2861.42L68.8611 2859.63L65.36 2857.83L61.8621 2856.02L58.3672 2854.2L54.8754 2852.36L51.3866 2850.52L47.9007 2848.66L44.4176 2846.8L40.9374 2844.93L37.46 2843.04L33.9853 2841.15L30.5132 2839.24L27.0437 2837.33L23.5767 2835.41L20.1122 2833.48L16.6501 2831.54L13.1903 2829.6L9.7328 2827.64L6.27752 2825.68L2.8244 2823.71L-0.626635 2821.73L-4.07565 2819.75L-7.5227 2817.76L-10.9679 2815.76L-14.4112 2813.76L-17.8528 2811.75L-21.2926 2809.73L-24.7309 2807.71L-28.1676 2805.68L-31.6028 2803.65L-35.0366 2801.61L-38.469 2799.57L-41.9001 2797.52L-45.3301 2795.47L-48.7589 2793.41L-52.1866 2791.36L-55.6133 2789.29L-59.0391 2787.23L-62.464 2785.16L-65.8881 2783.09L-69.3115 2781.01L-72.7343 2778.94L-76.1564 2776.86L-79.5781 2774.78L-82.9994 2772.7L-86.4202 2770.61L-89.8408 2768.53L-93.2612 2766.44L-96.6814 2764.36" stroke="url(#paint8_linear_106_252)" stroke-opacity="0.6" stroke-width="5" stroke-miterlimit="10" stroke-linecap="round" stroke-linejoin="round"/>
</g>
<g clip-path="url(#clip8_106_252)">
<path d="M-79.5483 4176.05L-76.0122 4174.34L-72.476 4172.64L-68.9397 4170.93L-65.4033 4169.22L-61.8668 4167.52L-58.3299 4165.81L-54.7929 4164.11L-51.2555 4162.41L-47.7177 4160.71L-44.1795 4159.01L-40.6409 4157.31L-37.1017 4155.62L-33.562 4153.93L-30.0218 4152.25L-26.4809 4150.57L-22.9393 4148.89L-19.397 4147.22L-15.8539 4145.55L-12.31 4143.88L-8.76525 4142.22L-5.2196 4140.57L-1.67301 4138.92L1.87456 4137.28L5.42317 4135.64L8.97285 4134.01L12.5236 4132.38L16.0756 4130.76L19.6287 4129.15L23.1831 4127.55L26.7388 4125.95L30.2958 4124.36L33.8541 4122.78L37.4139 4121.2L40.9751 4119.64L44.5377 4118.08L48.1019 4116.53L51.6677 4114.99L55.235 4113.46L58.804 4111.94L62.3747 4110.43L65.9471 4108.92L69.5212 4107.43L73.0971 4105.95L76.6748 4104.48L80.2544 4103.01L83.8359 4101.56L87.4193 4100.12L91.0047 4098.7L94.592 4097.28L98.1814 4095.87L101.773 4094.48L105.366 4093.1L108.962 4091.73L112.56 4090.37L116.16 4089.03L119.762 4087.69L123.366 4086.37L126.973 4085.07L130.582 4083.77L134.193 4082.49L137.807 4081.22L141.423 4079.97L145.042 4078.73L148.663 4077.51L152.286 4076.29L155.912 4075.1L159.54 4073.91L163.171 4072.74L166.805 4071.59L170.441 4070.45L174.079 4069.32L177.72 4068.21L181.364 4067.12L185.011 4066.04L188.66 4064.97L192.312 4063.92L195.966 4062.89L199.624 4061.87L203.284 4060.86L206.947 4059.88L210.612 4058.91L214.281 4057.95L217.952 4057.01L221.626 4056.09L225.302 4055.18L228.982 4054.29L232.664 4053.41L236.35 4052.55L240.038 4051.71L243.729 4050.88L247.423 4050.07L251.12 4049.28L254.819 4048.5L258.522 4047.74L262.227 4046.99L265.936 4046.26L269.647 4045.55L273.361 4044.86L277.078 4044.18L280.798 4043.52L284.521 4042.87L288.247 4042.24L291.976 4041.63L295.707 4041.03L299.442 4040.45L303.179 4039.89L306.92 4039.35L310.663 4038.82L314.409 4038.3L318.158 4037.81L321.91 4037.33L325.665 4036.86L329.422 4036.41L333.183 4035.98L336.946 4035.57L340.712 4035.17L344.481 4034.78L348.253 4034.42L352.027 4034.07L355.805 4033.73L359.585 4033.41L363.368 4033.11L367.153 4032.82L370.941 4032.54L374.732 4032.29L378.526 4032.04L382.323 4031.82L386.122 4031.61L389.923 4031.41L393.728 4031.23L397.534 4031.06L401.344 4030.91L405.156 4030.77L408.97 4030.64L412.787 4030.54L416.607 4030.44L420.429 4030.36L424.253 4030.29L428.08 4030.24L431.909 4030.2L435.741 4030.17L439.575 4030.16L443.411 4030.16L447.249 4030.17L451.09 4030.19L454.933 4030.23L458.778 4030.28L462.625 4030.34L466.475 4030.42L470.326 4030.51L474.18 4030.6L478.035 4030.71L481.893 4030.83L485.752 4030.97L489.614 4031.11L493.477 4031.26L497.342 4031.43L501.209 4031.6L505.078 4031.79L508.949 4031.98L512.821 4032.19L516.695 4032.4L520.57 4032.63L524.447 4032.86L528.326 4033.1L532.206 4033.35L536.088 4033.61L539.971 4033.88L543.856 4034.15L547.742 4034.43L551.629 4034.72L555.517 4035.02L559.407 4035.33L563.298 4035.64L567.19 4035.95L571.083 4036.28L574.978 4036.61L578.873 4036.95L582.769 4037.29L586.667 4037.63L590.565 4037.99L594.464 4038.34L598.364 4038.71L602.264 4039.07L606.165 4039.44L610.067 4039.82L613.97 4040.19L617.873 4040.58L621.777 4040.96L625.681 4041.35L629.586 4041.74L633.491 4042.13L637.397 4042.52L641.302 4042.92L645.209 4043.32L649.115 4043.71L653.021 4044.11L656.928 4044.51L660.835 4044.92L664.741 4045.32L668.648 4045.72L672.555 4046.12L676.462 4046.52L680.368 4046.92L684.274 4047.32L688.18 4047.72L692.086 4048.11L695.992 4048.51L699.897 4048.9L703.802 4049.29L707.706 4049.68L711.61 4050.06L715.513 4050.44L719.415 4050.82L723.317 4051.19L727.219 4051.56L731.119 4051.93L735.019 4052.29L738.918 4052.65L742.816 4053L746.714 4053.35L750.61 4053.69L754.505 4054.03L758.4 4054.36L762.293 4054.68L766.185 4055L770.076 4055.31L773.966 4055.61L777.854 4055.91L781.741 4056.2L785.627 4056.48L789.512 4056.76L793.395 4057.03L797.277 4057.28L801.157 4057.53L805.036 4057.78L808.913 4058.01L812.788 4058.23L816.662 4058.45L820.534 4058.65L824.405 4058.85L828.274 4059.03L832.141 4059.21L836.006 4059.37L839.869 4059.52L843.731 4059.67L847.59 4059.8L851.448 4059.92L855.303 4060.03L859.157 4060.13L863.008 4060.22L866.857 4060.29L870.705 4060.35L874.55 4060.4L878.393 4060.44L882.233 4060.47L886.072 4060.48L889.908 4060.48L893.742 4060.46L897.574 4060.44L901.403 4060.4L905.23 4060.34L909.054 4060.28L912.876 4060.19L916.695 4060.1L920.512 4059.99L924.327 4059.87L928.139 4059.73L931.948 4059.58L935.755 4059.41L939.56 4059.23L943.361 4059.03L947.16 4058.82L950.957 4058.59L954.75 4058.35L958.541 4058.09L962.33 4057.82L966.115 4057.53L969.898 4057.22L973.678 4056.9L977.456 4056.57L981.23 4056.22L985.002 4055.85L988.771 4055.47L992.537 4055.07L996.3 4054.65L1000.06 4054.22L1003.82 4053.77L1007.57 4053.31L1011.33 4052.83L1015.07 4052.33L1018.82 4051.82L1022.56 4051.29L1026.3 4050.74L1030.04 4050.18L1033.78 4049.6L1037.51 4049L1041.24 4048.39L1044.96 4047.76L1048.68 4047.12L1052.4 4046.46L1056.12 4045.78L1059.84 4045.08L1063.55 4044.37L1067.26 4043.64L1070.96 4042.9L1074.66 4042.14L1078.36 4041.36L1082.06 4040.57L1085.75 4039.75L1089.45 4038.93L1093.13 4038.08L1096.82 4037.22L1100.5 4036.35L1104.18 4035.46L1107.86 4034.55L1111.53 4033.63L1115.2 4032.69L1118.87 4031.73L1122.54 4030.76L1126.2 4029.77L1129.86 4028.77L1133.52 4027.75L1137.17 4026.71L1140.82 4025.66L1144.47 4024.6L1148.12 4023.52L1151.76 4022.42L1155.4 4021.31L1159.04 4020.19L1162.68 4019.05L1166.31 4017.89L1169.94 4016.72L1173.57 4015.54L1177.2 4014.34L1180.82 4013.13L1184.44 4011.9L1188.06 4010.66L1191.68 4009.41L1195.29 4008.14L1198.9 4006.86L1202.51 4005.57L1206.12 4004.26L1209.72 4002.94L1213.32 4001.61L1216.92 4000.26L1220.52 3998.91L1224.12 3997.54L1227.71 3996.15L1231.3 3994.76L1234.89 3993.36L1238.48 3991.94L1242.06 3990.51L1245.65 3989.07L1249.23 3987.62L1252.81 3986.16L1256.39 3984.69L1259.96 3983.2L1263.54 3981.71L1267.11 3980.21L1270.68 3978.7L1274.25 3977.18L1277.82 3975.64L1281.38 3974.1L1284.95 3972.56L1288.51 3971L1292.07 3969.43L1295.63 3967.86L1299.19 3966.28L1302.74 3964.69L1306.3 3963.09L1309.85 3961.48L1313.41 3959.87L1316.96 3958.25L1320.51 3956.63L1324.06 3955L1327.61 3953.36L1331.16 3951.71L1334.7 3950.07L1338.25 3948.41L1341.79 3946.75L1345.34 3945.09L1348.88 3943.42L1352.42 3941.74L1355.96 3940.07L1359.5 3938.39L1363.04 3936.7L1366.58 3935.01L1370.12 3933.32L1373.66 3931.63L1377.2 3929.93L1380.74 3928.23L1384.28 3926.53L1387.81 3924.82L1391.35 3923.12L1394.89 3921.41L1398.42 3919.71L1401.96 3918L1405.5 3916.29" stroke="url(#paint9_linear_106_252)" stroke-opacity="0.6" stroke-width="5" stroke-miterlimit="10" stroke-linecap="round" stroke-linejoin="round"/>
</g>
</g>
<defs>
<linearGradient id="paint0_linear_106_252" x1="-269.5" y1="1136.16" x2="872.429" y2="1385.63" gradientUnits="userSpaceOnUse">
<stop/>
<stop offset="1" stop-color="#202020"/>
</linearGradient>
<linearGradient id="paint1_linear_106_252" x1="762.681" y1="1544.32" x2="781.836" y2="1694.43" gradientUnits="userSpaceOnUse">
<stop stop-color="#0099CB"/>
<stop offset="1" stop-color="#0099CB" stop-opacity="0"/>
</linearGradient>
<linearGradient id="paint2_linear_106_252" x1="125.815" y1="112.563" x2="214.855" y2="215.886" gradientUnits="userSpaceOnUse">
<stop stop-color="#0099CB"/>
<stop offset="1" stop-color="#0099CB" stop-opacity="0"/>
</linearGradient>
<linearGradient id="paint3_linear_106_252" x1="893.825" y1="347.903" x2="1051.6" y2="95.7502" gradientUnits="userSpaceOnUse">
<stop stop-color="#0099CB"/>
<stop offset="1" stop-color="#0099CB" stop-opacity="0"/>
</linearGradient>
<linearGradient id="paint4_linear_106_252" x1="666.622" y1="866.835" x2="683.901" y2="587.648" gradientUnits="userSpaceOnUse">
<stop stop-color="#0099CB"/>
<stop offset="1" stop-color="#0099CB" stop-opacity="0"/>
</linearGradient>
<linearGradient id="paint5_linear_106_252" x1="646.768" y1="1126.45" x2="617.991" y2="1246.94" gradientUnits="userSpaceOnUse">
<stop stop-color="#0099CB"/>
<stop offset="1" stop-color="#0099CB" stop-opacity="0"/>
</linearGradient>
<linearGradient id="paint6_linear_106_252" x1="207.577" y1="-96.0526" x2="846.115" y2="420.884" gradientUnits="userSpaceOnUse">
<stop stop-color="#07607E"/>
<stop offset="1" stop-color="#07607E" stop-opacity="0"/>
</linearGradient>
<linearGradient id="paint7_linear_106_252" x1="592.747" y1="2280.72" x2="616.344" y2="2415.06" gradientUnits="userSpaceOnUse">
<stop stop-color="#0099CB"/>
<stop offset="1" stop-color="#0099CB" stop-opacity="0"/>
</linearGradient>
<linearGradient id="paint8_linear_106_252" x1="663" y1="2908.25" x2="625.712" y2="3039.45" gradientUnits="userSpaceOnUse">
<stop stop-color="#0099CB"/>
<stop offset="1" stop-color="#0099CB" stop-opacity="0"/>
</linearGradient>
<linearGradient id="paint9_linear_106_252" x1="651.082" y1="3978.47" x2="674.679" y2="4112.81" gradientUnits="userSpaceOnUse">
<stop stop-color="#0099CB"/>
<stop offset="1" stop-color="#0099CB" stop-opacity="0"/>
</linearGradient>
<clipPath id="clip0_106_252">
<rect width="1365" height="4300" fill="white"/>
</clipPath>
<clipPath id="clip1_106_252">
<rect width="1902.22" height="333.423" fill="white" transform="translate(-193 1574.78) rotate(-7.27185)"/>
</clipPath>
<clipPath id="clip2_106_252">
<rect width="495.982" height="247.991" fill="white" transform="translate(-98 231.781) rotate(-40.7536)"/>
</clipPath>
<clipPath id="clip3_106_252">
<rect width="1013.38" height="655.366" fill="white" transform="translate(1229.08 768.101) rotate(-147.966)"/>
</clipPath>
<clipPath id="clip4_106_252">
<rect width="1836.89" height="272.942" fill="white" transform="matrix(-0.972643 -0.232303 -0.232303 0.972643 1558.04 1267.71)"/>
</clipPath>
<clipPath id="clip5_106_252">
<rect width="1397.03" height="315.306" fill="white" transform="translate(391.693 -171) rotate(39.5315)"/>
</clipPath>
<clipPath id="clip6_106_252">
<rect width="1392.62" height="247.991" fill="white" transform="translate(-101 2345.93) rotate(-9.96251)"/>
</clipPath>
<clipPath id="clip7_106_252">
<rect width="1544.02" height="247.991" fill="white" transform="matrix(-0.961905 -0.273383 -0.273383 0.961905 1419 3065.11)"/>
</clipPath>
<clipPath id="clip8_106_252">
<rect width="1511.37" height="247.991" fill="white" transform="translate(-101 4053.93) rotate(-9.96251)"/>
</clipPath>
</defs>
</svg>
