<svg width="1958" height="561" viewBox="0 0 1958 561" fill="none" xmlns="http://www.w3.org/2000/svg">
<path d="M300.212 135.77C290.24 116.565 276.39 102.161 258.662 92.558C240.934 82.586 220.436 77.6 197.168 77.6C171.684 77.6 148.97 83.3247 129.026 94.774C109.082 106.223 93.3853 122.474 81.936 143.526C70.856 164.578 65.316 188.954 65.316 216.654C65.316 244.354 70.856 268.915 81.936 290.336C93.3853 311.388 109.082 327.639 129.026 339.088C148.97 350.537 171.684 356.262 197.168 356.262C231.516 356.262 259.401 346.659 280.822 327.454C302.243 308.249 315.355 282.211 320.156 249.34H175.562V198.926H387.744V248.232C383.681 278.148 372.971 305.663 355.612 330.778C338.623 355.893 316.278 376.021 288.578 391.164C261.247 405.937 230.777 413.324 197.168 413.324C160.973 413.324 127.918 405.014 98.002 388.394C68.086 371.405 44.264 347.952 26.536 318.036C9.17733 288.12 0.498 254.326 0.498 216.654C0.498 178.982 9.17733 145.188 26.536 115.272C44.264 85.356 68.086 62.088 98.002 45.468C128.287 28.4786 161.343 19.984 197.168 19.984C238.164 19.984 274.543 30.1406 306.306 50.454C338.438 70.398 361.706 98.8366 376.11 135.77H300.212ZM1279.59 99.76C1303.23 99.76 1324.09 104.561 1342.19 114.164C1360.66 123.397 1375.06 135.031 1385.4 149.066V104.746H1449.11V414.986C1449.11 443.055 1443.2 467.985 1431.38 489.776C1419.57 511.936 1402.39 529.295 1379.86 541.852C1357.7 554.409 1331.11 560.688 1300.09 560.688C1258.72 560.688 1224.37 550.901 1197.04 531.326C1169.71 512.121 1154.2 485.898 1150.51 452.658H1213.11C1217.91 468.539 1228.07 481.281 1243.58 490.884C1259.46 500.856 1278.3 505.842 1300.09 505.842C1325.57 505.842 1346.07 498.086 1361.58 482.574C1377.46 467.062 1385.4 444.533 1385.4 414.986V364.018C1374.69 378.422 1360.1 390.61 1341.64 400.582C1323.54 410.185 1302.86 414.986 1279.59 414.986C1253 414.986 1228.62 408.338 1206.46 395.042C1184.67 381.377 1167.31 362.541 1154.38 338.534C1141.83 314.158 1135.55 286.643 1135.55 255.988C1135.55 225.333 1141.83 198.187 1154.38 174.55C1167.31 150.913 1184.67 132.631 1206.46 119.704C1228.62 106.408 1253 99.76 1279.59 99.76ZM1385.4 257.096C1385.4 236.044 1380.97 217.762 1372.11 202.25C1363.61 186.738 1352.35 174.919 1338.31 166.794C1324.28 158.669 1309.14 154.606 1292.88 154.606C1276.63 154.606 1261.49 158.669 1247.46 166.794C1233.42 174.55 1221.97 186.184 1213.11 201.696C1204.61 216.839 1200.37 234.936 1200.37 255.988C1200.37 277.04 1204.61 295.507 1213.11 311.388C1221.97 327.269 1233.42 339.457 1247.46 347.952C1261.86 356.077 1277 360.14 1292.88 360.14C1309.14 360.14 1324.28 356.077 1338.31 347.952C1352.35 339.827 1363.61 328.008 1372.11 312.496C1380.97 296.615 1385.4 278.148 1385.4 257.096Z" fill="#4285F4"/>
<path d="M582.44 414.986C553.632 414.986 527.594 408.523 504.326 395.596C481.058 382.3 462.776 363.833 449.48 340.196C436.184 316.189 429.536 288.489 429.536 257.096C429.536 226.072 436.369 198.557 450.034 174.55C463.7 150.543 482.351 132.077 505.988 119.15C529.626 106.223 556.033 99.76 585.21 99.76C614.388 99.76 640.795 106.223 664.432 119.15C688.07 132.077 706.721 150.543 720.386 174.55C734.052 198.557 740.884 226.072 740.884 257.096C740.884 288.12 733.867 315.635 719.832 339.642C705.798 363.649 686.592 382.3 662.216 395.596C638.21 408.523 611.618 414.986 582.44 414.986ZM582.44 360.14C598.691 360.14 613.834 356.262 627.868 348.506C642.272 340.75 653.906 329.116 662.77 313.604C671.634 298.092 676.066 279.256 676.066 257.096C676.066 234.936 671.819 216.285 663.324 201.142C654.83 185.63 643.565 173.996 629.53 166.24C615.496 158.484 600.353 154.606 584.102 154.606C567.852 154.606 552.709 158.484 538.674 166.24C525.009 173.996 514.114 185.63 505.988 201.142C497.863 216.285 493.8 234.936 493.8 257.096C493.8 289.967 502.11 315.451 518.73 333.548C535.72 351.276 556.956 360.14 582.44 360.14ZM1957.91 249.894C1957.91 261.343 1957.17 271.685 1955.69 280.918H1722.46C1724.31 305.294 1733.36 324.869 1749.61 339.642C1765.86 354.415 1785.8 361.802 1809.44 361.802C1843.42 361.802 1867.42 347.583 1881.46 319.144H1949.6C1940.37 347.213 1923.56 370.297 1899.19 388.394C1875.18 406.122 1845.26 414.986 1809.44 414.986C1780.26 414.986 1754.04 408.523 1730.77 395.596C1707.87 382.3 1689.77 363.833 1676.48 340.196C1663.55 316.189 1657.09 288.489 1657.09 257.096C1657.09 225.703 1663.37 198.187 1675.92 174.55C1688.85 150.543 1706.76 132.077 1729.66 119.15C1752.93 106.223 1779.52 99.76 1809.44 99.76C1838.25 99.76 1863.91 106.039 1886.44 118.596C1908.97 131.153 1926.52 148.881 1939.07 171.78C1951.63 194.309 1957.91 220.347 1957.91 249.894ZM1891.98 229.95C1891.61 206.682 1883.3 188.031 1867.05 173.996C1850.8 159.961 1830.67 152.944 1806.67 152.944C1784.88 152.944 1766.23 159.961 1750.71 173.996C1735.2 187.661 1725.97 206.313 1723.01 229.95H1891.98Z" fill="#EA4335"/>
<path d="M935.724 414.986C906.916 414.986 880.878 408.523 857.61 395.596C834.342 382.3 816.06 363.833 802.764 340.196C789.468 316.189 782.82 288.489 782.82 257.096C782.82 226.072 789.652 198.557 803.318 174.55C816.983 150.543 835.634 132.077 859.272 119.15C882.909 106.223 909.316 99.76 938.494 99.76C967.671 99.76 994.078 106.223 1017.72 119.15C1041.35 132.077 1060 150.543 1073.67 174.55C1087.33 198.557 1094.17 226.072 1094.17 257.096C1094.17 288.12 1087.15 315.635 1073.12 339.642C1059.08 363.649 1039.88 382.3 1015.5 395.596C991.493 408.523 964.901 414.986 935.724 414.986ZM935.724 360.14C951.974 360.14 967.117 356.262 981.152 348.506C995.556 340.75 1007.19 329.116 1016.05 313.604C1024.92 298.092 1029.35 279.256 1029.35 257.096C1029.35 234.936 1025.1 216.285 1016.61 201.142C1008.11 185.63 996.848 173.996 982.814 166.24C968.779 158.484 953.636 154.606 937.386 154.606C921.135 154.606 905.992 158.484 891.958 166.24C878.292 173.996 867.397 185.63 859.272 201.142C851.146 216.285 847.084 234.936 847.084 257.096C847.084 289.967 855.394 315.451 872.014 333.548C889.003 351.276 910.24 360.14 935.724 360.14Z" fill="#FBBC05"/>
<path d="M1595.22 0.0399947V410H1532.07V0.0399947H1595.22Z" fill="#34A853"/>
</svg>
